<mxfile host="app.diagrams.net" modified="2023-07-26T14:34:37.172Z" agent="Mozilla/5.0 (Windows NT 10.0; Win64; x64) AppleWebKit/537.36 (KHTML, like Gecko) Chrome/114.0.0.0 YaBrowser/23.7.0.2534 Yowser/2.5 Safari/537.36" etag="c7sRjlF3vEUL0KIrullx" version="21.6.5" type="device">
  <diagram name="Страница 1" id="uYBWi6YknykVQXLadrlM">
    <mxGraphModel dx="1002" dy="575" grid="1" gridSize="10" guides="1" tooltips="1" connect="1" arrows="1" fold="1" page="1" pageScale="1" pageWidth="827" pageHeight="1169" math="0" shadow="0">
      <root>
        <mxCell id="0" />
        <mxCell id="1" parent="0" />
        <mxCell id="x4aL_yg12Eag-uVYPV-x-1" value="Ученик" style="swimlane;fontStyle=1;align=center;verticalAlign=top;childLayout=stackLayout;horizontal=1;startSize=26;horizontalStack=0;resizeParent=1;resizeParentMax=0;resizeLast=0;collapsible=1;marginBottom=0;whiteSpace=wrap;html=1;" parent="1" vertex="1">
          <mxGeometry x="30" y="84" width="160" height="136" as="geometry" />
        </mxCell>
        <mxCell id="x4aL_yg12Eag-uVYPV-x-2" value="ID ученика (счётчик)" style="text;strokeColor=none;fillColor=none;align=left;verticalAlign=top;spacingLeft=4;spacingRight=4;overflow=hidden;rotatable=0;points=[[0,0.5],[1,0.5]];portConstraint=eastwest;whiteSpace=wrap;html=1;" parent="x4aL_yg12Eag-uVYPV-x-1" vertex="1">
          <mxGeometry y="26" width="160" height="26" as="geometry" />
        </mxCell>
        <mxCell id="x4aL_yg12Eag-uVYPV-x-3" value="" style="line;strokeWidth=1;fillColor=none;align=left;verticalAlign=middle;spacingTop=-1;spacingLeft=3;spacingRight=3;rotatable=0;labelPosition=right;points=[];portConstraint=eastwest;strokeColor=inherit;" parent="x4aL_yg12Eag-uVYPV-x-1" vertex="1">
          <mxGeometry y="52" width="160" height="8" as="geometry" />
        </mxCell>
        <mxCell id="x4aL_yg12Eag-uVYPV-x-4" value="ФИО (текст)" style="text;strokeColor=none;fillColor=none;align=left;verticalAlign=top;spacingLeft=4;spacingRight=4;overflow=hidden;rotatable=0;points=[[0,0.5],[1,0.5]];portConstraint=eastwest;whiteSpace=wrap;html=1;" parent="x4aL_yg12Eag-uVYPV-x-1" vertex="1">
          <mxGeometry y="60" width="160" height="26" as="geometry" />
        </mxCell>
        <mxCell id="x4aL_yg12Eag-uVYPV-x-5" value="Номер телефона (текст)" style="html=1;whiteSpace=wrap;" parent="x4aL_yg12Eag-uVYPV-x-1" vertex="1">
          <mxGeometry y="86" width="160" height="50" as="geometry" />
        </mxCell>
        <mxCell id="x4aL_yg12Eag-uVYPV-x-6" value="Курсы" style="swimlane;fontStyle=1;align=center;verticalAlign=top;childLayout=stackLayout;horizontal=1;startSize=26;horizontalStack=0;resizeParent=1;resizeParentMax=0;resizeLast=0;collapsible=1;marginBottom=0;whiteSpace=wrap;html=1;" parent="1" vertex="1">
          <mxGeometry x="320" y="84" width="160" height="186" as="geometry" />
        </mxCell>
        <mxCell id="x4aL_yg12Eag-uVYPV-x-7" value="ID курса (счётчик)" style="text;strokeColor=none;fillColor=none;align=left;verticalAlign=top;spacingLeft=4;spacingRight=4;overflow=hidden;rotatable=0;points=[[0,0.5],[1,0.5]];portConstraint=eastwest;whiteSpace=wrap;html=1;" parent="x4aL_yg12Eag-uVYPV-x-6" vertex="1">
          <mxGeometry y="26" width="160" height="26" as="geometry" />
        </mxCell>
        <mxCell id="x4aL_yg12Eag-uVYPV-x-8" value="" style="line;strokeWidth=1;fillColor=none;align=left;verticalAlign=middle;spacingTop=-1;spacingLeft=3;spacingRight=3;rotatable=0;labelPosition=right;points=[];portConstraint=eastwest;strokeColor=inherit;" parent="x4aL_yg12Eag-uVYPV-x-6" vertex="1">
          <mxGeometry y="52" width="160" height="8" as="geometry" />
        </mxCell>
        <mxCell id="x4aL_yg12Eag-uVYPV-x-9" value="ID учеников (список)" style="text;strokeColor=none;fillColor=none;align=left;verticalAlign=top;spacingLeft=4;spacingRight=4;overflow=hidden;rotatable=0;points=[[0,0.5],[1,0.5]];portConstraint=eastwest;whiteSpace=wrap;html=1;" parent="x4aL_yg12Eag-uVYPV-x-6" vertex="1">
          <mxGeometry y="60" width="160" height="26" as="geometry" />
        </mxCell>
        <mxCell id="x4aL_yg12Eag-uVYPV-x-10" value="Длительность (время)" style="html=1;whiteSpace=wrap;" parent="x4aL_yg12Eag-uVYPV-x-6" vertex="1">
          <mxGeometry y="86" width="160" height="50" as="geometry" />
        </mxCell>
        <mxCell id="x4aL_yg12Eag-uVYPV-x-11" value="Кол-во уроков (число)" style="html=1;whiteSpace=wrap;" parent="x4aL_yg12Eag-uVYPV-x-6" vertex="1">
          <mxGeometry y="136" width="160" height="50" as="geometry" />
        </mxCell>
        <mxCell id="Fp5cUHVa1AVCzLWp-yhm-1" style="edgeStyle=orthogonalEdgeStyle;rounded=0;orthogonalLoop=1;jettySize=auto;html=1;" edge="1" parent="1" source="x4aL_yg12Eag-uVYPV-x-9" target="x4aL_yg12Eag-uVYPV-x-2">
          <mxGeometry relative="1" as="geometry" />
        </mxCell>
        <mxCell id="Fp5cUHVa1AVCzLWp-yhm-2" value="Уроки" style="swimlane;fontStyle=1;align=center;verticalAlign=top;childLayout=stackLayout;horizontal=1;startSize=26;horizontalStack=0;resizeParent=1;resizeParentMax=0;resizeLast=0;collapsible=1;marginBottom=0;whiteSpace=wrap;html=1;" vertex="1" parent="1">
          <mxGeometry x="610" y="84" width="160" height="210" as="geometry" />
        </mxCell>
        <mxCell id="Fp5cUHVa1AVCzLWp-yhm-3" value="ID урока (счётчик)" style="text;strokeColor=none;fillColor=none;align=left;verticalAlign=top;spacingLeft=4;spacingRight=4;overflow=hidden;rotatable=0;points=[[0,0.5],[1,0.5]];portConstraint=eastwest;whiteSpace=wrap;html=1;" vertex="1" parent="Fp5cUHVa1AVCzLWp-yhm-2">
          <mxGeometry y="26" width="160" height="26" as="geometry" />
        </mxCell>
        <mxCell id="Fp5cUHVa1AVCzLWp-yhm-4" value="" style="line;strokeWidth=1;fillColor=none;align=left;verticalAlign=middle;spacingTop=-1;spacingLeft=3;spacingRight=3;rotatable=0;labelPosition=right;points=[];portConstraint=eastwest;strokeColor=inherit;" vertex="1" parent="Fp5cUHVa1AVCzLWp-yhm-2">
          <mxGeometry y="52" width="160" height="8" as="geometry" />
        </mxCell>
        <mxCell id="Fp5cUHVa1AVCzLWp-yhm-5" value="ID преподавателя (счётчик)" style="text;strokeColor=none;fillColor=none;align=left;verticalAlign=top;spacingLeft=4;spacingRight=4;overflow=hidden;rotatable=0;points=[[0,0.5],[1,0.5]];portConstraint=eastwest;whiteSpace=wrap;html=1;" vertex="1" parent="Fp5cUHVa1AVCzLWp-yhm-2">
          <mxGeometry y="60" width="160" height="50" as="geometry" />
        </mxCell>
        <mxCell id="Fp5cUHVa1AVCzLWp-yhm-6" value="ID предмета (счётчик)" style="html=1;whiteSpace=wrap;" vertex="1" parent="Fp5cUHVa1AVCzLWp-yhm-2">
          <mxGeometry y="110" width="160" height="50" as="geometry" />
        </mxCell>
        <mxCell id="Fp5cUHVa1AVCzLWp-yhm-7" value="ID курса (счётчик)" style="html=1;whiteSpace=wrap;" vertex="1" parent="Fp5cUHVa1AVCzLWp-yhm-2">
          <mxGeometry y="160" width="160" height="50" as="geometry" />
        </mxCell>
        <mxCell id="Fp5cUHVa1AVCzLWp-yhm-12" style="edgeStyle=orthogonalEdgeStyle;rounded=0;orthogonalLoop=1;jettySize=auto;html=1;" edge="1" parent="1" source="Fp5cUHVa1AVCzLWp-yhm-7" target="x4aL_yg12Eag-uVYPV-x-7">
          <mxGeometry relative="1" as="geometry">
            <Array as="points">
              <mxPoint x="540" y="269" />
              <mxPoint x="540" y="123" />
            </Array>
          </mxGeometry>
        </mxCell>
      </root>
    </mxGraphModel>
  </diagram>
</mxfile>
